<svg xmlns="http://www.w3.org/2000/svg" xmlns:xlink="http://www.w3.org/1999/xlink" viewBox="0 0 469.47 469.47"><defs><style>.cls-1{isolation:isolate;}.cls-2{fill:#1aadad;}.cls-23,.cls-3,.cls-8{mix-blend-mode:multiply;}.cls-3{fill:url(#New_Gradient_Swatch_10);}.cls-4{fill:url(#New_Gradient_Swatch_10-2);}.cls-5{fill:url(#New_Gradient_Swatch_10-3);}.cls-6{fill:url(#New_Gradient_Swatch_10-4);}.cls-7{fill:#096289;}.cls-9{fill:url(#New_Gradient_Swatch_10-5);}.cls-10{fill:#351e14;}.cls-11{fill:url(#linear-gradient);}.cls-12{fill:url(#New_Gradient_Swatch_15);}.cls-13{fill:url(#New_Gradient_Swatch_10-6);}.cls-14{fill:url(#New_Gradient_Swatch_10-7);}.cls-15{fill:url(#New_Gradient_Swatch_15-2);}.cls-16{fill:url(#New_Gradient_Swatch_15-3);}.cls-17{fill:url(#New_Gradient_Swatch_15-4);}.cls-18{fill:url(#New_Gradient_Swatch_15-5);}.cls-19{fill:url(#New_Gradient_Swatch_15-6);}.cls-20{fill:url(#New_Gradient_Swatch_15-7);}.cls-21{fill:url(#New_Gradient_Swatch_15-8);}.cls-22{fill:url(#New_Gradient_Swatch_15-9);}.cls-23{opacity:0.68;}.cls-24{fill:url(#New_Gradient_Swatch_15-10);}.cls-25{fill:#fff;}.cls-26{fill:#c5c0a7;}</style><linearGradient id="New_Gradient_Swatch_10" x1="167.23" y1="300.14" x2="167.23" y2="125.77" gradientTransform="matrix(1.02, 0, 0.13, 0.98, -31.67, 5.04)" gradientUnits="userSpaceOnUse"><stop offset="0" stop-color="#117d94" stop-opacity="0"/><stop offset="1" stop-color="#117d94"/></linearGradient><linearGradient id="New_Gradient_Swatch_10-2" x1="213.27" y1="300.46" x2="213.27" y2="119.59" xlink:href="#New_Gradient_Swatch_10"/><linearGradient id="New_Gradient_Swatch_10-3" x1="205.91" y1="300.44" x2="205.91" y2="119.64" xlink:href="#New_Gradient_Swatch_10"/><linearGradient id="New_Gradient_Swatch_10-4" x1="216.32" y1="300.45" x2="216.32" y2="119.61" xlink:href="#New_Gradient_Swatch_10"/><linearGradient id="New_Gradient_Swatch_10-5" x1="308.21" y1="326.97" x2="308.21" y2="216.61" gradientTransform="matrix(-1.04, 0.1, -0.05, 0.97, 805.19, -40.1)" xlink:href="#New_Gradient_Swatch_10"/><linearGradient id="linear-gradient" x1="290.7" y1="313.66" x2="319.4" y2="435.66" gradientUnits="userSpaceOnUse"><stop offset="0" stop-color="#1aadad"/><stop offset="1" stop-color="#096289"/></linearGradient><linearGradient id="New_Gradient_Swatch_15" x1="252.94" y1="401.07" x2="296" y2="236.91" gradientUnits="userSpaceOnUse"><stop offset="0" stop-color="#169eb5"/><stop offset="1" stop-color="#fff"/></linearGradient><linearGradient id="New_Gradient_Swatch_10-6" x1="286.49" y1="248.63" x2="284.92" y2="230.02" gradientTransform="matrix(1, 0, 0, 1, 0, 0)" xlink:href="#New_Gradient_Swatch_10"/><linearGradient id="New_Gradient_Swatch_10-7" x1="267.24" y1="250.25" x2="265.67" y2="231.64" gradientTransform="matrix(1, 0, 0, 1, 0, 0)" xlink:href="#New_Gradient_Swatch_10"/><linearGradient id="New_Gradient_Swatch_15-2" x1="200.95" y1="232.76" x2="218.89" y2="271.34" xlink:href="#New_Gradient_Swatch_15"/><linearGradient id="New_Gradient_Swatch_15-3" x1="153.58" y1="254.8" x2="171.52" y2="293.37" xlink:href="#New_Gradient_Swatch_15"/><linearGradient id="New_Gradient_Swatch_15-4" x1="126.15" y1="267.55" x2="144.09" y2="306.13" xlink:href="#New_Gradient_Swatch_15"/><linearGradient id="New_Gradient_Swatch_15-5" x1="142.5" y1="259.95" x2="160.44" y2="298.52" xlink:href="#New_Gradient_Swatch_15"/><linearGradient id="New_Gradient_Swatch_15-6" x1="138.5" y1="261.81" x2="156.44" y2="300.38" xlink:href="#New_Gradient_Swatch_15"/><linearGradient id="New_Gradient_Swatch_15-7" x1="127.01" y1="267.16" x2="144.95" y2="305.73" xlink:href="#New_Gradient_Swatch_15"/><linearGradient id="New_Gradient_Swatch_15-8" x1="382.74" y1="233.16" x2="382.29" y2="242.35" xlink:href="#New_Gradient_Swatch_15"/><linearGradient id="New_Gradient_Swatch_15-9" x1="348.31" y1="231.48" x2="347.86" y2="240.67" xlink:href="#New_Gradient_Swatch_15"/><linearGradient id="New_Gradient_Swatch_15-10" x1="422.34" y1="281.51" x2="343.73" y2="381.59" xlink:href="#New_Gradient_Swatch_15"/></defs><title>SCCOE_Logo_Color</title><g class="cls-1"><g id="Layer_1" data-name="Layer 1"><circle class="cls-2" cx="234.33" cy="234.19" r="223.93"/><path class="cls-3" d="M176.52,126.59,183,122l1.33,4-3.86.65,3.94,2.77-7,1.18c.25,2.44.49,4.89.77,7.71,4.79-2.8,5-9.76,10.58-10.17.12,1,.27,2.28.41,3.53l.93-.09-1.93,3.15,3.06,1-6.24,4,4.87.87-3.37,2,9.82,4.4-7.71,3.76-2.67-2.09-.8,1.73-4.57.76a8.19,8.19,0,0,0,3.67,1.57c1.15.3,2.75,1.35,3.33.89,2.47-2,4.43-2.19,6.48-.4.31.26,1.19-.15,1.8-.22l6.35-.67v1l-6.88,5,.86,1.53-4.19-1.34-.81,2.48-5.92-.46-.44,1.41c2.79.49,6,2.28,8.28,1.19,3.92-1.9,7.27-1.17,11-1.33-1.73,1.49-4.51,2.34-5.23,3.92-1.77,3.91-4.17,5.06-7.76,4.92a51.4,51.4,0,0,0-6.25.5c3.92,2.35,7.84,4.45,11.83,1.66a20.44,20.44,0,0,0,3.73.9c2.26,0,4.56-.18,6.72-.28-3.5,8.63-10,9.68-16.69,11.14a12.86,12.86,0,0,0,5,1.79c3.15.37,6.4-3,9.72-.91,1.34.86,3.67.27,5.55.34l.12,1.27-7.47,6c.61,4.4-4.63,1.55-6.27,5l12.59-1.54a11.78,11.78,0,0,0-1.34,2.2,7.81,7.81,0,0,0-.12,2.17l-2.79.15c2,2,2,2,10.19-.88-.4,1.67-.34,3.59-1.26,4.77a11.88,11.88,0,0,1-4.58,3.09,18.41,18.41,0,0,1-4.38.81l-.08,1.65,17.25-1.39-11.68,9.69,12,.5.12-.83-3.44-2.44,5.38-.91L220,212.08l8.21-2.3.12-1-7.21-3,5.17-4.14-3.83-2.33,10.79-3-10.62-1.57.2-1.54,11.76-1.09a4.11,4.11,0,0,0-2.31-1c-1-.2-2.39,0-2.85-.64-.92-1.25-1.31-2.92-2.12-4.9l4.62,1.06c-.39-2.64-.69-4.62-.85-5.69l4.27-5.13,1.88.78-2,4.23c2.86-2.39,2.75-2.34,3.6.14.24.68,1.22,1.09,2,1.43s2,.23,2,.38c-.13,1.4-.51,2.82-.75,4.23-.08.45-.15,1.1.09,1.32,1.42,1.36,2.94,2.61,4.78,4.22l-8.48,1.82-.07,1.06,12.32-.43.08.94L242,200.36v.75l9.29-1.12.24,1.62-11.21,5,13.43.07.3,1.58-10.34,5.42,12.3-.47,0,1.11L248,220.55l7.61-1.27L253.29,223l5.43-.91c-.15,4.27-3.48,3.24-5.41,5.14l10-.76-6.87,5.32c1.88.17,3.89.26,5.84.57a7.94,7.94,0,0,1,2.19,1.07c-.67.7-1.26,1.75-2,2-3.89,1.5-7.84,2.8-12.19,4.32l15,.71,0,1-13.54,5.93c2.73.45,4.91,1.18,7.17,1.07,2-.1,4.13-1.12,6.66-1.87l-4.87,8.59,3.75.38c-7.73,4.2-15.4,7-23.56,5.82.05.77.13,1.93.2,2.95l-5.16.87c.23-2,.42-3.72.72-6.33-8.09,7.86-16.26,7.82-24.51,8-.13,2.32-2.74,3.33-6.34,2.3a8.92,8.92,0,0,0-4.49.41c-1,.28-1.81,1.5-2.81,1.9-4.76,1.93-8.9,1.07-13.14-2.7l1.2,7.88-9.29,1.56c1.88-8.93,1.88-8.93-.4-10.48-.57.83-1,2-1.74,2.43-4.48,2.76-7.67,8-13.75,7.84-4.69-.12-9.67,3.41-14.45,1.35-.76-.33-2.22.52-3.3,1s-2,1.35-3,1.77c-4.7,1.9-8.9,1.13-13.33-2,.57,3.19.93,5.17,1.28,7.15l-10.19,1.71c.71-2.61,1.51-5.21,2.08-7.84.12-.55-.58-1.16-.91-1.74-.56.4-1.14.77-1.67,1.21-2,1.65-3.85,3.49-5.94,4.92a18.19,18.19,0,0,1-5.42,2.57A87.06,87.06,0,0,1,97.06,290c-1.12.16-2.81.37-3.26-.25-1.48-2-4-1.34-5.86-2.28l.45-1.65-9.58-1.18c3-8.77,11.15-4.81,16.5-8.74l-12.6.19.89-2.34-4.87.82L78.59,273c4.39-1.36,8.8-2.73,13.19-4.12.1,0,.15-.36,0,0L82,265.34l7-3c-2.8-1.89-8.8,1.5-7.39-4.55l-3.48-.5c1.26-.89,2.71-.55,3.4-1.16,3.23-2.87,6.64-2.68,10.24-3.09,2.74-.32,5.53-2.11,8.56-3.34-5.13-2.6-11.66-.21-14.64-5.66,6.84-1,13.79-1.15,21-5.71a30.57,30.57,0,0,1-4-.35c-5.71-1.38-13.17,2.12-17.47-4.4L103.73,229l-3-1.33,8.61-4.16-.19-1.09c-6.91,2.72-13.85,5.71-19.76.33l14.83-6.86-.95-2.75c-3.34,2.52-6.72,1.89-10.73-2.07l4.65-.78,4.74-.8-8.22-4.18.45-.94L107.06,201l.18-1.56-14.18-5.38.06-.76,7.69-1.29c-1.81-4.46,2.79-2,4.07-3.42L97,184.55c4.47-1.32,7.85-3.29,10.61-2.92,5,.66,7.46-2.71,10.52-5.56-3.8,2.34-4.41,1.68-10.55,2.77-4.48.78-6.65-2.87-11.57-1.67l4.86-3.3c3.57-.1,15.45.17,16.79-2L106,170.37l2.24-1.62-3.18-5.86,7.3,1,.25-1.05-1.48-2.13,2.61-.27-3.46-6.1,4.61-1,1.72,3.46,1.08-.7L114,149.32l3,1.24.72-5.09.65-.08,1,3.77,3.16-2-3.84,7.77,6.79-4.4.61,3.82-3.55.44,3.78,2.49-6.73,1.13.48,7.15c3.85-3.75,7.18-7,10.52-10.24l.84.59c-.32,1.3-2.57,3.61,1.17,2.6l-1.95,3.29,2.6,1-5.86,3.56,3.44.64-1.67,2.22,8.67,3.12c-3.37,1.72-6.42,4.86-9.77,1.94l-.9,1.87-4.75.15c2.33,1.32,4,3.18,5.06,2.72,3.83-1.73,7.4-1.52,11.1-1.41a56.47,56.47,0,0,0,5.91-.42l0,1.15c-3.82.43-12.28,6.19-13.15,6.28-1.4.14-2.81.21-4.46.33,4.53,3.28,7.88,3.13,11.44.39l8-.22c-3,2.79-5.32,6.07-8.31,7.5-3.27,1.57-7.12,1.43-10.52,2,3.94,4.08,10-.07,14.84,1.5,2.09.68,4.94-.37,7.51-.65-4.08,8-10.63,8.93-18.05,10a10.34,10.34,0,0,0,10.68.66,10.06,10.06,0,0,1,2.33-.95c1.59,3,3.92,0,6.08-.37l-3.11-1.64c2.09-1.3,4-3,6.1-3.71,4.21-1.44,8.55-2.34,9.43-8.58-5.39,6.14-8.34,1.37-11.92-1.25l9-1.51L153,183.54c-.34-.22,8.19-3.85,12.53-5l.29-1.47-14.51-6.83,7.72-2.17c-1.42-3.85,1.65-3.13,5.15-3-3.38-2,8.15-10.84,11-13.41a36.82,36.82,0,0,0-4.86,1.8m4-25,1.2-.72m40.25,115c-.93-.12-2.23-.72-2.72-.3-3,2.57-6.46,1.23-10.41,3.45l10.63,3,.42-.82c-.69-1-1.37-2.09-2-3l3.89-2.48,7.71-.94.09-1.47a31.09,31.09,0,0,0-5.91-.65C215.74,239.67,214.74,240.91,215.79,242.73Zm-15.17-11.84-.34,1.72c4.4.42,8.77,1.06,13.23,1.08,1,0,2.32-2.13,3.17-3l12.51-5.92-.33-1.14c-3.46,1.06-7.39,1.33-10.27,3.36-4.85,3.41-9.56,3.45-14.48,3.65C203,230.72,201.79,230.82,200.62,230.89Zm-41.81-22.16,8.9-4.65c-4.07.33-8,2-11.74,2.16-4.84.2-6,6.46-11.23,6.18,2.84,1.46,16.58-1,17-2.78Zm-3.15,16.78c3.25-1.5,6.16-2.84,9.08-4.17l-.22-.74-6.45-.49Z" transform="translate(-48.48 -43.5)"/><path class="cls-4" d="M200.62,230.89c1.17-.07,2.33-.17,3.49-.21,4.92-.2,9.63-.24,14.48-3.65,2.88-2,6.81-2.3,10.27-3.36l.33,1.14-12.51,5.92c-.85.83-2.17,3-3.17,3-4.46,0-8.83-.66-13.23-1.08Z" transform="translate(-48.48 -43.5)"/><path class="cls-5" d="M215.65,242.61l-3.89,2.48c.58.88,1.26,1.93,2,3l-.42.82-10.63-3c4-2.22,7.44-.88,10.41-3.45.49-.42,1.79.18,2.72.3Z" transform="translate(-48.48 -43.5)"/><path class="cls-6" d="M215.79,242.73c-1-1.82,0-3.06,1.75-3.18a31.09,31.09,0,0,1,5.91.65l-.09,1.47-7.71.94Z" transform="translate(-48.48 -43.5)"/><path class="cls-7" d="M95.72,391.56l0,0c.86,1.42,1.74,2.82,2.63,4.22C97.44,394.4,96.58,393,95.72,391.56Z" transform="translate(-48.48 -43.5)"/><path class="cls-7" d="M256,255.52l-.28,0C294.88,243.07,336,239,378.87,243.09c2.9.28,5.8.63,8.69,1-1.74-.24-3.47-.47-5.2-.68-1.16-.13-2.32-.26-3.48-.37-62.52-6-121.19,5.39-175.59,34.83A234.84,234.84,0,0,0,147,320.28c-21.78,22.27-38.53,47.42-48.45,75.87q3.69,5.73,7.7,11.21C141.87,342.25,255.67,297.78,388.62,303c15,.59,29.76,1.81,44.11,3.58-18.27-16.68-39.33-28.43-62.37-36.56C333.13,256.92,295,251.59,256,255.52Z" transform="translate(-48.48 -43.5)"/><g class="cls-8"><path class="cls-9" d="M491.79,293.51c-1.91,2.18-3.81,2.93-6.05,2.1-.5-.19-1-.65-1.47-.87s-1.22-.63-1.56-.38c-2.11,1.56-4.54-.24-6.69.15-2.8.51-4.47-2.44-6.64-3.82-.36-.23-.6-.89-.9-1.35-1,1.1-1,1.1.24,6.38l-4.34-.32.24-4.86c-1.8,2.58-3.67,3.38-5.93,2.53-.48-.18-.91-.86-1.37-1a3.07,3.07,0,0,0-2.08.06c-1.62.86-2.86.43-3-1-3.8.43-7.56,1-11.59-3.2l.59,3.78-2.41-.17,0-1.81c-3.7,1.25-7.34.1-11.06-1.93l1.7-.48-2.58-4.87a12,12,0,0,0,3.14.68,13.81,13.81,0,0,0,3.25-1.14l-6.46-2.67,0-.6,6.87-1.44c-2.06-.63-3.93-1.15-5.78-1.8-.36-.13-.67-.72-1-1.1.32-.28.6-.67,1-.8.88-.32,1.8-.51,2.66-.74l-3.37-2.75,4.63-.22c-1-1-2.45-.17-2.69-2.75l2.53.18-1.19-2.1,3.55.26-4-3.23,0-.68,5.68-.55-5-2.58.08-1,6.17-1-5.35-2.27,0-1,4.32.05,0-.45-4.19-2.11v-.58l5.69-.57-.08-.64-4-.53c.78-1.09,1.43-2,2-2.87a1.48,1.48,0,0,0,0-.81c-.17-.84-.4-1.67-.51-2.52,0-.09.61-.15.88-.36a1.93,1.93,0,0,0,.85-1c.29-1.56.24-1.58,1.64-.32l-1.07-2.43.83-.6,2.17,2.82-.17,3.5,2.09-1a19.72,19.72,0,0,1-.78,3.11c-.19.4-.85.39-1.29.58a1.91,1.91,0,0,0-1,.79l5.45-.14.16.93-4.83,1.67L444.8,251l-1.67,1.68,2.54,2.15-3.2,2.3.1.58,3.87.84-2.1,2.2,2.51.18-1.49,1.71.09.5L451,262l-5.76-5.07,8-.33-.1-1a6.39,6.39,0,0,1-2.05-.2,5,5,0,0,1-2.23-1.56A9.38,9.38,0,0,1,448,251c3.88,1.22,3.88,1.22,4.72-.15l-1.29.1a5.6,5.6,0,0,0-.14-1.31,6.91,6.91,0,0,0-.7-1.24l5.85.08c-.89-2-3.19.11-3.08-2.59l-3.68-3.15V242c.86-.17,1.95,0,2.54-.58,1.44-1.49,3.07.33,4.5-.11a5.68,5.68,0,0,0,2.21-1.41c-3.13-.44-6.17-.64-8.12-5.63,1-.08,2.06-.12,3.1-.28a8.47,8.47,0,0,0,1.68-.8c1.94,1.42,3.66-.11,5.37-1.8a17.34,17.34,0,0,0-2.89.12c-1.65.33-2.8-.21-3.77-2.46-.39-.91-1.7-1.23-2.56-2,1.71-.16,3.23-.82,5.1.06,1.08.51,2.5-.79,3.76-1.28l-.26-.83-2.7.69-.47-1.45-1.87,1.1.33-1-3.36-2.55,0-.61,2.94,0c.28,0,.71.19.84,0,.87-1.22,1.78-1.22,3-.2.29.24,1-.5,1.5-.76a3.71,3.71,0,0,0,1.62-1.2l-2.13-.15-.43-1-1.15,1.44-3.69-1.75,4.33-3.33-1.62-1,2.2-.86-3-2,1.37-.83-1-1.78h.43l0-2.16c2.6-.13,3,4.07,5.28,5.44l0-4.72-3.28-.24,1.7-1.94-1.8-.14.45-2.51,3.14,2.34-2.21-5.29,1.58,1.39.3-2.64H463l.46,3.56,1.49-1.38-1.44,5,.58.35.53-2.34,2.13.15L465.58,207l.71.29c-.21,2,.11,2.55,1.2,1.88a4.45,4.45,0,0,1,2-.92l-1.25,4.2,1.14.92-5.25,2c.37,1.22,1.58,1,3.8.62,1.26-.24,2.56-.06,3.37-1l2.49,1.83a2.89,2.89,0,0,1-.5.49c-.88.48-1.76.91-2.64,1.38-.57.31-1.12.65-1.77,1-.09-.31,0,0,.21.68-.84-.28-1.53-.5-2.21-.76a13.87,13.87,0,0,0-2.31-.76c1.42,1.37,2.48,3.46,4.71,2.28,1-.54,2.73.74,4.74,1.41l-3.85,3.69c1.61-.3,3-.94,2.49,1.48l3.63.8-6.39,5.12.19.87,6.12,1.16.29.54-3.62,3.7,4.19.31c-1.54,1.82-2.71,4.91-5.43,1.56.65,3.72,2.68,4,4.68,4.56a13.69,13.69,0,0,1,2.95,1.84l-1.37,1.2c1,.09,2.2,1.72,2.82-.19,0-.09.72.25,1.11.42,1.69.73,3.2.58,4.88-1.13-3.45-.14-6.5-.24-8.7-4.82,1.19,0,2.55.44,3.48-.12,2.16-1.28,5.12.82,6.77-1.91-1.59-.12-3.36.23-4.92-.5s-2.64-2.49-4.12-4l3.67-.41c1.74,1.42,3.29,1.29,5.24-1-.76,0-1.41.09-2.06.1a1.57,1.57,0,0,1-1.28-.51c-2.21,1.48-3.24-2.4-5-2.4l-.05-.7a19.06,19.06,0,0,0,2.73-.14c1.7-.32,3.33-.69,5.16.1.48.21,1.2-1,2.22-2l-2.19.23-.49-1.07c-1.42,2-2.95.3-4.57-.51l3.86-2.48-.85-1.23,1.55-.63-2.84-1.76,1.16-.76-1-1.87c1.76.36.63-.88.43-1.65l.36-.41,5.25,5.49-.07-4.37-3.13-.22,1.63-1.77-1.65,0,.13-2.36,3.3,2.2-2.08-4.44,1.54,1,.3-2.35h.3l.54,3,1.31-.95-1.4,4.33.52.35.65-2.21,2.16.29L493.21,220l1.22,0-.6,1.39.16.62,3.31-1.07-1.23,3.77,1.1.83-5.31,1.73c.7,1.19,1.65,1.24,3.61.56a20.18,20.18,0,0,1,4.19-.52L502,229c-2.17-.1-4.07,10.52-10.22.84,1.52,1.51,2.78,3.39,5.06,2.65,1.25-.41,2.89.55,5,1.05l-3.45,3c.65.77,2.66-1,2,1.8l3.59.26.06.45c-2.1,1.41-2.12,5.91-.1,6.28l.25.55-3.61,3.08,2.21.16,2.16.16c-1.68,2.67-3.21,3.28-4.84,2l-.33,1.73,7.09,3.16c-2.5,3.66-5.77,4.32-6.35,4.76l8.73,1.5c-1.72,4.24-5.29,2.63-7.86,3.85-.48.22,4.83,2.38,8,2.52-1.15,3.51-4.25,2.5-6.5,4.42,1.44.54,2.79,1.44,4.07,1.44,1.67,0,3.23-.33,4.83,1.18.34.33,1,0,1.61.48l-1.58.53c.89,3.58-2,1.93-3.22,3.26l3.36,1.37-4.37,2.79c-.08-.21,0,0,0,0l6.24,1.6v1l-2.27-.17.5,1.36-5.8.74c2.62,2,6.18-.93,7.94,4.17l-4.36,1.37.27,1c-.79.69-2,.45-2.6,1.77-.18.41-1,.4-1.49.37a29.64,29.64,0,0,1-4.39-.42,6.88,6.88,0,0,1-2.59-1.19,34.91,34.91,0,0,1-2.93-2.58c-.26-.23-.55-.41-.82-.62-.13.38-.42.8-.35,1.12.37,1.55.84,3.07,1.27,4.61l-4.75-.35Zm-18.67-40.43c.25,1,6.66,1.61,7.91.53-2.38.52-3.18-3.19-5.41-3-1.73.16-3.6-.59-5.48-.51l4.28,2.21Zm2.09,6.1-2.95.73-.07.46,4.34,1.91Z" transform="translate(-48.48 -43.5)"/></g><path class="cls-10" d="M283.22,513C153.78,513,48.48,407.67,48.48,278.24S153.78,43.5,283.22,43.5,518,148.8,518,278.24,412.65,513,283.22,513Zm0-453.89c-120.85,0-219.16,98.31-219.16,219.16S162.37,497.4,283.22,497.4s219.16-98.32,219.16-219.16S404.06,59.08,283.22,59.08Z" transform="translate(-48.48 -43.5)"/><path class="cls-11" d="M388.62,303c-133-5.25-246.76,39.23-282.36,104.34a219,219,0,0,0,234.28,82.41,241.3,241.3,0,0,0,47.54-19.14A219.88,219.88,0,0,0,498.51,319.29,504.41,504.41,0,0,0,388.62,303Z" transform="translate(-48.48 -43.5)"/><path class="cls-10" d="M497.58,323.88c.25-1.19.49-2.37.73-3.56C498.07,321.51,497.83,322.69,497.58,323.88Z" transform="translate(-48.48 -43.5)"/><path class="cls-10" d="M491.46,346.53h0c.17-.52.32-1.06.49-1.59C491.81,345.48,491.64,346,491.46,346.53Z" transform="translate(-48.48 -43.5)"/><path class="cls-10" d="M370.36,270.05c23.08,8.14,44.15,19.91,62.44,36.63a486.48,486.48,0,0,1,65.69,12.66A216.39,216.39,0,0,0,501.66,296c-28.08-23.66-63.18-41.42-102.83-50.16-6.65-1.12-13.29-2.08-20-2.72-42.91-4.08-84,0-123.13,12.45l.28,0C295,251.59,333.13,256.92,370.36,270.05Z" transform="translate(-48.48 -43.5)"/><path class="cls-10" d="M496.2,329.93c.27-1.12.54-2.23.79-3.35C496.74,327.7,496.47,328.81,496.2,329.93Z" transform="translate(-48.48 -43.5)"/><path class="cls-10" d="M494.65,335.94c.29-1.06.57-2.11.84-3.17C495.22,333.83,494.94,334.88,494.65,335.94Z" transform="translate(-48.48 -43.5)"/><path class="cls-10" d="M492.93,341.9c.31-1,.6-2,.89-3C493.53,339.9,493.24,340.9,492.93,341.9Z" transform="translate(-48.48 -43.5)"/><path class="cls-12" d="M502,291.4c-44-34.74-103.52-61.07-171.34-72.23-4.29-.7-9.05-1.28-14.08-1.74a345.83,345.83,0,0,0-154,12.54A357.89,357.89,0,0,0,64.06,278.1v.14a217.88,217.88,0,0,0,34.5,117.92c9.91-28.45,26.67-53.6,48.45-75.88a234.84,234.84,0,0,1,56.28-42.4c54.4-29.44,113.07-40.78,175.59-34.83,6.67.63,13.31,1.6,20,2.71,39.64,8.75,74.75,26.48,102.83,50.13C501.78,294.4,501.88,292.9,502,291.4Z" transform="translate(-48.48 -43.5)"/><path class="cls-13" d="M279.66,242.47a5.26,5.26,0,0,1,.61,3.1c0,1.1,0,2.19,0,3.29,2.37-.53,4.74-1,7.12-1.51-.36-1.32-.68-2.65-.94-4-.14-.71.28-1.22.4-1.84a4.27,4.27,0,0,1,1.76-1.47,2.75,2.75,0,0,1,2.42.08,2.46,2.46,0,0,0,2.55-.77,1,1,0,0,0,.09-1,4.9,4.9,0,0,0-5.57-3.23c-.89.08-6.46-3.57-7.11-4s-1.09,0-1.57.33c-.25.46-.59.91-.38,1.46a.47.47,0,0,0,.06.15c.43,1.39-.42,2.49-1.06,3.48-1.1,1.72-.42,3,.5,4.44A6.79,6.79,0,0,0,279.66,242.47Z" transform="translate(-48.48 -43.5)"/><path class="cls-14" d="M261,243a2.75,2.75,0,0,1,0,2.8c-.38.72-.72,1.48,0,2.24.48,1.27,1.57,2.06,2.43,3a1.58,1.58,0,0,0,1,.76,3.44,3.44,0,0,1,1.17.73q2.87-.81,5.75-1.55a1.86,1.86,0,0,0,0-.58A29.31,29.31,0,0,1,270.2,244a5.48,5.48,0,0,1,.21-2.78,10.54,10.54,0,0,0,.55-3.9,3.28,3.28,0,0,1,.85-2.53,1.44,1.44,0,0,0,.46-1.29c-.08-.45-.31-.8-.82-.71a11.19,11.19,0,0,0-4.89,1.79,6.64,6.64,0,0,0-3.46,2.82,3.71,3.71,0,0,0-1,2.17,1.3,1.3,0,0,1-.94,1.19c-.75.19-.84.69-.61,1.32A5.11,5.11,0,0,0,261,243Z" transform="translate(-48.48 -43.5)"/><path class="cls-10" d="M314,164a8.33,8.33,0,0,0-.64-3.25,5.68,5.68,0,0,1-.61-2.19,2.77,2.77,0,0,0-.41-1.45c-.38-2.41-1.52-4.65-1.73-7.11a1.06,1.06,0,0,0-.35-.76h0c-.25-1.15-.5-2.3-.76-3.45-.54-1.43-.8-2.94-1.25-4.38-.53-1.69-1-3.41-1.54-5.09-.89-2.78-1.94-5.5-2.78-8.3a7.74,7.74,0,0,0-.73-2.71h0c-.35-1.64-1.31-3.07-1.62-4.72a.49.49,0,0,0-.17-.25,1,1,0,0,0-.18-.17,11.84,11.84,0,0,1-.77-1.61c-.63-2-6.27-4.86-7.42-5.29-1.78-.71-3.35-1.82-5.07-2.64-.73-.36-.7-.77-.2-1.23.9-.85,1.85-1.65,2.78-2.47a5.89,5.89,0,0,0,1.55-1.89c.26-.19.22-.52.38-.76.27-1.39.82-2.76.36-4.22,0,.25-.14.26,0,0,.59-.58,1-1.18.56-2.06-.17-.32,0-.67.11-1l-.06-.15h0a1,1,0,0,0,.11-1.38h.14c-.54-1.09-1.42-2-1.6-3.27,0-.14-.27-.24-.41-.36l-.38-1a2.75,2.75,0,0,0-.49-1.41c-.67-1.31-.53-2.13.8-2.6a15.34,15.34,0,0,1,3.71-1.32c.46,0,.94-.13.92-.73s-.49-.83-1-.86a6,6,0,0,0-3.11.89.66.66,0,0,0-.2.11h0c-1.58.35-15.95,3.42-16.26,3.43-1.19-.14-2.18.6-3.32.72-.64.07-.9.46-1,1.08a10,10,0,0,1-.7,3.15,1.31,1.31,0,0,0,.05,1.51c.31.37.74.26,1.12.05h0a1.51,1.51,0,0,0,.57-.58l.55-.43c.62-.22,1.31-.76,1.79.18s1.26,1.94.21,3.07c-.21.22-.19.66-.28,1l-.56,1a1.43,1.43,0,0,0-.05,2,1.92,1.92,0,0,1,.44,1.58c-.53.37-1.08.87-.62,1.48s.81-.11,1.16-.38.56-.12.66.28.14.62.24.92c.32,1,.71,1.16,1.71.88.73-.21,1.15.11,1,.87a12.41,12.41,0,0,1-.5,1.53,3.35,3.35,0,0,1-3.07,2.44,6.2,6.2,0,0,0-3.46,1.17,19.33,19.33,0,0,0-7.08,8.61,6.47,6.47,0,0,0-1,2.26h0a12.55,12.55,0,0,1-.31,1.48,48.44,48.44,0,0,0-1.92,8.23c-.17,1.13-.72,2.19-.58,3.36a12.37,12.37,0,0,1-1.15,5.53h0a28.79,28.79,0,0,1-1,4,3.37,3.37,0,0,0,0,.84h0a.3.3,0,0,1,0,.16,12.91,12.91,0,0,0-.54,2.54l-.06.71a11.76,11.76,0,0,0-.8,4.54h0a15.92,15.92,0,0,0-.69,4.65h0a31.27,31.27,0,0,1-.89,4.28c-.42,2.54-.74,5.07.48,7.55.65,1.32,1.24,2.74.45,4.27a2,2,0,0,0,0,.75c-.25,1.68-1.09,3.22-1.15,4.94.16.3,0,.63.08.94a5.38,5.38,0,0,0,.54,2.37c.21.32.4.66.87.64s.62-.41.75-.75a2.33,2.33,0,0,1,1-1.44l.17-.22,1.95-1.3h0a7.06,7.06,0,0,0,3.42-3.36c.59-1.28.72-2.68,1.36-3.91.34-.18.27-.9.71-.77s.35.75.34,1.17c0,.76,0,1.53-.11,2.29-.16,2.21.36,4.43-.17,6.64-.17.74-.28,1.49-.42,2.24a.22.22,0,0,0-.05.14,25.4,25.4,0,0,0-.9,3.76.22.22,0,0,0,0,.16c-.61,2.09-1.85,7.09-1.92,7.5-.5,3-.56,6-1.46,8.86a3.77,3.77,0,0,0-.08.76c-.06.84.36,1.22,1.19,1.25a11.33,11.33,0,0,0,2.46-.23c2.47-.47,3.69.56,3.65,3v.09a2.68,2.68,0,0,1-2,3.05,1.46,1.46,0,0,0-1,.65,9.46,9.46,0,0,0-2.48,2.68c-.7.66-.43,1.4-.12,2.1.4.92.6,5.38.66,5.93a3.47,3.47,0,0,0,.78,2.09,6.17,6.17,0,0,0,3.06,2.88,10.55,10.55,0,0,0,4.46,2c.48.11.71-.2.82-.61a1.36,1.36,0,0,0-.35-1.25,3.05,3.05,0,0,1-.62-2.42,10,10,0,0,0-.26-3.7,5.17,5.17,0,0,1,0-2.62,27.88,27.88,0,0,1,1.45-6,3.13,3.13,0,0,0,.07-.75L275,211.2a1.56,1.56,0,0,1,1.87-.51,2.16,2.16,0,0,0,2.35-.63,8.39,8.39,0,0,1,1.62-1.47c.31-.18.65-.35,1-.11s.22.56.2.88c-.32,3.67-.67,7.34-.91,11a4.94,4.94,0,0,1-.78,2.86,6.38,6.38,0,0,0-1.13,1.35c-1,1.24-1.68,2.44-.76,4.13a6.59,6.59,0,0,1,.89,2.07l0,.41a2.17,2.17,0,0,1-.16.85.38.38,0,0,0-.06.13c-.24.51.05.95.26,1.4.43.3.81.74,1.44.41a.6.6,0,0,0,.13-.09l.1,0,8.16-3.1a4.49,4.49,0,0,0,4-2.75,1,1,0,0,0,0-1,2.34,2.34,0,0,0-2.34-.89,2.6,2.6,0,0,1-2.28-.07,4.13,4.13,0,0,1-1.55-1.5c-.07-.59-.44-1.09-.26-1.76A53.93,53.93,0,0,1,289,216.3c.51-1.22.86-2.51,1.28-3.77h0c.24-1.71,1.13-3.23,1.45-4.92a1.11,1.11,0,0,1,1.25-.83,11.46,11.46,0,0,1,3.39.37,8.47,8.47,0,0,0,8.12-1.34,2,2,0,0,0,1-1.92,44.05,44.05,0,0,1-.07-5.51c-.13-3.56,0-7.13,0-10.7,0-3.31,0-6.62-.08-9.93,0-1.21.11-2.12,1.18-2.75a4.38,4.38,0,0,0,2.73-3.21,5,5,0,0,1,1.86-1.94c1.32-.37,1.67-.77,1.58-2.08a3.22,3.22,0,0,1,.94-3A.86.86,0,0,0,314,164Z" transform="translate(-48.48 -43.5)"/><g class="cls-8"><path class="cls-15" d="M217,267a1,1,0,0,1,.67-1c.2-.47.77-.61.89-1.15.06-.1.19-.2.08-.32s-.2,0-.29.07l.71-1.33a2.12,2.12,0,0,0,.69-1.28c1-2.35,3.75-3.65,5.68-2.68a3.9,3.9,0,0,0,1.91.48c1.89-.09,3.22-2.41,2.62-4.28-.77-2.41-2.73-3.19-4.53-4.25s-3.64-1.1-5.43-1.72a31.2,31.2,0,0,0-5.68-1.39,6.42,6.42,0,0,0-3.58.62,1.3,1.3,0,0,0-.79,1.2,6.83,6.83,0,0,1-.71,2.81,5.75,5.75,0,0,0-.37,2.4,2.76,2.76,0,0,1-.6,1.88c-1.08,1.62-1.54,3.18-.52,4.85a2.94,2.94,0,0,1,0,2.54c-.93,2.39-1.51,4.85-2.23,7.29.08.4-.26.69-.33,1.05q-.51,2.93-1.26,5.8,6.12-3.28,12.3-6.25C216.29,270.6,216.84,268.83,217,267Z" transform="translate(-48.48 -43.5)"/><path class="cls-16" d="M168.64,300.6a1.15,1.15,0,0,0,.16-.57c-.29-2.26.31-4.59.18-6.86-.15-2.52-.19-5.07-.37-7.59a34.4,34.4,0,0,0-1-5.47c-.38-1.54-1.12-3-.86-4.76a33.11,33.11,0,0,0,.12-5.45,7,7,0,0,1,.72-3.33c.56-1.14,1.21-2.25.83-3.56a4.92,4.92,0,0,1,1.6,4.27c-.33,3.18-.2,6.33-.38,9.5a44.57,44.57,0,0,0,.77,10.3,61.57,61.57,0,0,0,2.18,8.68c.25.76.51,1.51.77,2.26,3.56-2.67,7.22-5.22,10.94-7.69,0-.16,0-.31-.05-.47a92.67,92.67,0,0,1-1.87-9.21c-.33-2.42-.75-4.83-1.13-7.24a11.79,11.79,0,0,0-.76-3,5.11,5.11,0,0,1,.53-4.44,4.79,4.79,0,0,0,.29-4.72,18.39,18.39,0,0,1-.9-2.49,2.19,2.19,0,0,1,.4-2.35,5.34,5.34,0,0,1,2.23-2.09c1.21-.51,1.41-1.67.73-3.12a3,3,0,0,0-2-.55,45.14,45.14,0,0,0-8,.76,6.94,6.94,0,0,1-1.93.41l-.26,0a3.14,3.14,0,0,1-1.45.38c-.83.18-1,.65-.58,1.34.13.24.31.5,0,.8s-.54,0-.68-.15a4.42,4.42,0,0,0-3.63-.62c-2.29.32-4.59.48-6.88.7a20.68,20.68,0,0,0-2.8.46,9,9,0,0,0-.15,6.28.78.78,0,0,1-.08.66,1.07,1.07,0,0,0,.06,1.2,3.15,3.15,0,0,1,.3,2.46.77.77,0,0,1-.16.63l-.06.4v1.83c0,.33,0,.66.05,1a2,2,0,0,1,.17,1.18c.47,2.33.95,4.64,1.4,7a11.48,11.48,0,0,1,.28,2.56,36,36,0,0,0,.52,6.91,4.79,4.79,0,0,1-.56,3.2,38.52,38.52,0,0,0-2.82,7.3c-.39,1.2-.77,2.4-1.08,3.61-.18.7-.62.58-1,.66s-.81,0-.76.64c.23,2.61-.57,5.23-.72,7.86-.14,2.42-.17,4.81-.16,7.21a230.91,230.91,0,0,1,17.75-15.57A1.5,1.5,0,0,1,168.64,300.6Z" transform="translate(-48.48 -43.5)"/><path class="cls-17" d="M193.4,412.25a.14.14,0,0,0,.09,0s0,0,0-.06-.06,0-.08,0S193.32,412.23,193.4,412.25Z" transform="translate(-48.48 -43.5)"/><path class="cls-18" d="M185.73,352.76a1.83,1.83,0,0,1-.06.63,1.83,1.83,0,0,0,.06-.63,1.86,1.86,0,0,0-.41-1.23A1.86,1.86,0,0,1,185.73,352.76Z" transform="translate(-48.48 -43.5)"/><path class="cls-19" d="M182,355.57a2.28,2.28,0,0,1-.13-.57A2.28,2.28,0,0,0,182,355.57Z" transform="translate(-48.48 -43.5)"/><path class="cls-20" d="M150.79,317.81v-.45l-.6.58a7.71,7.71,0,0,0,.6,1.08Z" transform="translate(-48.48 -43.5)"/></g><polygon class="cls-10" points="104.3 116.98 104.3 116.98 104.3 116.97 104.3 116.98"/><path class="cls-10" d="M229.2,233.27a5.22,5.22,0,0,0-2,1,4,4,0,0,1-5.87-1,1.45,1.45,0,0,0-.72-1l-.74-1.09c.1,0,.2.13.31,0s0-.21-.09-.29c-.13-.49-.71-.47-.92-.87-.5,0-.67-.36-.7-.78-.16-2.06-1-8.31-1.31-8.36-.17-1.12-.34-2.25-.5-3.37-.36-2.48,0-5.13-.78-7.51a2.82,2.82,0,0,0-1.11-1.85,1.71,1.71,0,0,1-.47-2.36c.72-1,.33-1.68.15-2.52-.48-2.29-1.75-4.21-1.49-6.89.23-2.5-.32-5-.59-7.44a22.94,22.94,0,0,0-.37-3.41c-.33-1.3-3.21-10.94-3.19-11.82a6.11,6.11,0,0,0-1-3.5c-.22-.37-.62-.69-.43-1.33a4.65,4.65,0,0,0-.38-3.8,2.83,2.83,0,0,1-.45-1.17,42.61,42.61,0,0,0-2-5.88,25.72,25.72,0,0,1-.93-6.2c0-1.66.23-8.91.43-10.69a46.11,46.11,0,0,0,.67-5.21,1.08,1.08,0,0,1,.09-.48,3.33,3.33,0,0,0,.18-3.39,10.53,10.53,0,0,1-.87-6.57,7.59,7.59,0,0,0-.22-2.19,5.25,5.25,0,0,0-2.33-3.1c-.81-.39-.71-1.1-.34-1.79a9.41,9.41,0,0,1,.79-1.3c1.42-1.85,2.95-3.69,3-6.1a.79.79,0,0,1,.42-.66.91.91,0,0,0,.42-1.29,26.1,26.1,0,0,0,.81-8.29c-.06-.57-.12-1.14-.21-1.71,0-.28-.1-.66-.36-.71-1-.16-1.2-1-1.55-1.83-.37.67-.74.59-1.32.52-1.79-.23-3.6-.67-5.51-.09a10.47,10.47,0,0,0-5,2.85,6.93,6.93,0,0,0-1.9,4c-.18,1.95-1,3.86-.92,5.79a4.18,4.18,0,0,0,.44,2.38c.32.48-.29.88-.4,1.33a2,2,0,0,1-1.87,1.68,3.5,3.5,0,0,0-3.33,3,5.44,5.44,0,0,1-3.1,3.7c-1.63.79-2.8,2.4-4.28,3.47a13.59,13.59,0,0,0-5.29,8.61,47.24,47.24,0,0,0-1,10.2,15.31,15.31,0,0,1-.16,1.77,3,3,0,0,1-.34,1.88c-.13,2.75-.26,5.5-.24,8.23a36.13,36.13,0,0,0,.91,8,28.29,28.29,0,0,0,1.29,3.62,22.18,22.18,0,0,1,1,3.51c.11.5-.31,1.11-.06,1.63.68.35.76,1,.74,1.77,0,.91,0,1.76.95,2.1.41.15.21.62.17,1-.25,2.09-.53,4.18-.79,6.27a7.58,7.58,0,0,0-.32,1.56c0,.26-.22.3-.41.35l-3,.65a3.81,3.81,0,0,0-.09-3.72c-.78-1.62-1.32-3.39-2.05-5a3.19,3.19,0,0,0-3.18-2.25c.28-.59.82-.55,1.09-.89a31.46,31.46,0,0,0,1.7-6.5.64.64,0,0,0-.27-.63c-.76-.69-1.39-1.42-.65-2.7,0,0,.05-.07,0-.09-.8-1.41.1-3.53-1.42-4.72a6.19,6.19,0,0,0-3.77-1.53,25.1,25.1,0,0,0-4,0,7.57,7.57,0,0,0-4.14,2c-.49.44-1,.11-1.45.45,0,.43-.3.4-.57.41a11.93,11.93,0,0,0-1.15.82c-1.63,1.47-1.9,3.42-2.29,5.28-.47,2.28.51,4.13,1.24,6,.32.81,1,1.75,2.1,1.55.9-.17,1.76-.07,2.63-.29s1.18.27,1.36.93a3.7,3.7,0,0,1,.06,1.06c0,1-.22,1.22-1.15,1.08-.45-.07-.63,0-.62.46s-.31.63-.63.85a4.54,4.54,0,0,0-1.57,1.45,12.43,12.43,0,0,1-1.37,1.59c-1.3,1.63-3,3.2-2.71,5.43a6.28,6.28,0,0,1-.74,3.35,8.41,8.41,0,0,0-.44,1.21,34.09,34.09,0,0,1-1.83,5.07,96.46,96.46,0,0,0-5,13.07,11.21,11.21,0,0,1-2.17,4.54c-.87,1-1.83,2-1.16,3.32,0,.07,0,.2,0,.29-.22.6.07.91.54.95.7.06.63.3.2.78s-.34.79.15,1a.45.45,0,0,1,.29.67c-.41.9.15.71.65.68s.66-.41.9-.73c.46-.57.7-1.4,1.63-1.39.27,0,.27-.32.39-.51.42-.65.1-1.4.59-2a2.39,2.39,0,0,0,.5-1.49,24.58,24.58,0,0,1,2.51-8.72c1-2.19,2.45-4.24,3.43-6.47a29.09,29.09,0,0,1,1.57-3.63c0,.54,0,.86,0,1.18,0,2.47,0,4.93.19,7.38s1,4.82.78,7.41c0,.65.43.45.79.41s.87-.27,1.06.35c.33,1.09.72,2.16,1.13,3.21a27.17,27.17,0,0,0,2.93,6.29,3.81,3.81,0,0,1,.6,2.95,35.22,35.22,0,0,0-.52,6.84,10.74,10.74,0,0,1-.28,2.56c-.44,2.38-.93,4.76-1.41,7.14a2,2,0,0,1-.17,1.2l0,1c0,.59,0,1.18,0,1.77,0,.13,0,.25.07.38a.59.59,0,0,1,.16.56,3.11,3.11,0,0,1-.3,2.47,1,1,0,0,0-.06,1.18.6.6,0,0,1,.09.62,8.05,8.05,0,0,0,.18,6,21.86,21.86,0,0,0,2.89-.33c2.37-.42,4.73-.9,7.09-1.22A5.83,5.83,0,0,0,169,254.8c.15-.15.37-.61.71-.33s.11.51,0,.79c-.4.77-.26,1.19.6,1.13a3.31,3.31,0,0,1,1.5,0l.26,0a7.52,7.52,0,0,1,2-.14,52.88,52.88,0,0,0,8.25-1.46,4.29,4.29,0,0,0,2.09-1.1c.69-1.59.48-2.66-.77-2.82a3.89,3.89,0,0,1-2.31-1.41,1.81,1.81,0,0,1-.42-2.17,23.84,23.84,0,0,1,.92-2.66,4.21,4.21,0,0,0-.31-4.49,4.25,4.25,0,0,1-.57-4.16,13.7,13.7,0,0,0,.77-3.09c.38-2.44.81-4.89,1.13-7.33.43-3.17,1.16-6.3,1.89-9.44,0-.31,1.72-6.41,1.84-8.29a15.38,15.38,0,0,1,.44-1.67,102,102,0,0,1,4.21-12,9.16,9.16,0,0,1,1.43-2.66c.33-.38.52-.4.69,0,.38.89.74,1.79,1.13,2.66.79,1.74,1.57,3.48,2.4,5.2.23.48.64.8.76,1.41a17.06,17.06,0,0,0,1.56,4.89,8.62,8.62,0,0,1,.75,2.93,8.18,8.18,0,0,0,1.05,3.63c.34.47.91.8,1,1.42.29,2,1.42,3.54,2.08,5.33a52.7,52.7,0,0,1,2.21,7.92c.07.33.42.52.34.93a64,64,0,0,0,2.33,6.44,2.7,2.7,0,0,1,0,2.46,3.56,3.56,0,0,0,.56,4.55,2,2,0,0,1,.62,1.66,4.62,4.62,0,0,0,.39,2.22,5.21,5.21,0,0,1,.75,2.53.91.91,0,0,0,.82.95,6.88,6.88,0,0,0,3.69-.39,43,43,0,0,0,5.84-2.92c1.85-1.1,3.88-1.76,5.6-3.17s3.87-2.82,4.65-5.36C232.53,234.72,231.15,232.83,229.2,233.27Zm-54.57-25.39c-.7,1.88-1.33,3.77-1.94,5.67a68.94,68.94,0,0,0-2.21,9,43.51,43.51,0,0,0-.75,10.2c.19,3,.08,6.1.43,9.1a5.85,5.85,0,0,1-1.63,4.57c.38-1.38-.3-2.27-.88-3.22a5.55,5.55,0,0,1-.75-3,29.57,29.57,0,0,0-.14-5.25c-.28-1.66.47-3.25.86-4.84a35.14,35.14,0,0,0,1-5.57c.19-2.49.22-5,.36-7.46.12-2.24-.51-4.33-.21-6.6a1,1,0,0,0-.17-.51,1.26,1.26,0,0,1,.54-1.84c.77-.45.66-.93.35-1.34a2.72,2.72,0,0,1-.4-2.06,14.11,14.11,0,0,0-.38-3.64c-.18-1.4-.26-2.87-.41-4.3a22,22,0,0,1,.21-4.2.64.64,0,0,1,.55-.67,60.36,60.36,0,0,0,5.89-1.8c.57-.24.55.18.56.53a20.17,20.17,0,0,0,.06,3c.36,2.12-.12,4.34-.12,6.5a11.8,11.8,0,0,0,.46,2.57C176.26,204.53,175.25,206.21,174.63,207.88Z" transform="translate(-48.48 -43.5)"/><g class="cls-8"><path class="cls-21" d="M376.43,242.9a16.67,16.67,0,0,1,1.63-4c1.11-1.95,3-2,5.34-.54-3.31-.18-4.6,1.68-5.48,3.94-.08.22-.15.45-.23.67l2.31.28a8,8,0,0,1,1-1.52c1.33-1.59,3.38-1.16,5.33,1a18.6,18.6,0,0,1,1.21,1.51c1.18.18,2.35.37,3.52.57a29,29,0,0,0-2.16-3.86,26.82,26.82,0,0,0-4.64-5.29c-2.39-2.07-5.12-2.28-7-.7a10.11,10.11,0,0,0-2.57,3.41,17.4,17.4,0,0,0-1.29,4.15Z" transform="translate(-48.48 -43.5)"/><path class="cls-22" d="M341.41,241.64a23.35,23.35,0,0,1,.63-3.21,10.56,10.56,0,0,1,2.22-4c1.1-1.29,2.66-1.19,4.74.06-3.47-.11-4.92,1.82-5.63,4.32a26.22,26.22,0,0,0-.63,2.76l2.14,0c0-.21.05-.41.08-.61a5.31,5.31,0,0,1,.74-1.9c1.65-3.07,4.43-2.76,7.18.78a15.77,15.77,0,0,1,1.16,1.73c1,0,2,0,3.07.07a24.78,24.78,0,0,0-5.57-8.43c-3.56-3.45-7.36-3.83-9.81-.94a10.57,10.57,0,0,0-1.65,2.7,22,22,0,0,0-1.57,6.78Z" transform="translate(-48.48 -43.5)"/></g><path class="cls-10" d="M405.79,220.39a20.64,20.64,0,0,0-5.12-3.08,5.6,5.6,0,0,1-2.25-2.39c.95-2.57,1-5.77-.23-7.58-.23-.32-.51-.76-.83-.83-1.44-.31-1.42-1.44-1.6-2.52a20.37,20.37,0,0,0-3-8.14,4,4,0,0,1-.31-2.78,5.93,5.93,0,0,0-2.8-6.8l3.19-2.85a1.54,1.54,0,0,0,.44-.48,24.56,24.56,0,0,0,1.07-2.81,2.91,2.91,0,0,0-3.61-3.48c-1.41.28-2.81.59-4.23.89-1-4.21-2.07-8.33-3.08-12.45a3.41,3.41,0,0,0-2.11-2.75,28.33,28.33,0,0,1-4.76-3.1c-.25-.18-.56-.58-.52-.82.25-1.4-.44-2.89.9-4.22.66-.67.6-2.16.69-3.29a54.11,54.11,0,0,0,.22-5.83c0-1.6-.51-3.08-2.34-3.61-.17,0-.39-.11-.46-.24-1.17-2.06-3-1.4-4.39-.7a19.28,19.28,0,0,0-5.46,3.92,6,6,0,0,0-1,5.91,61,61,0,0,0,3.08,6.68,23.41,23.41,0,0,1-2.64,1.6c-2.26,1-4.58,1.88-6.86,2.84a4.43,4.43,0,0,0-2.68,2.75,37,37,0,0,1-6.27,10.88,7.66,7.66,0,0,0-.72,9.12c1,1.81,2.13,3.53,3.18,5.27-7.06,4.46-9.31,11.8-10.65,19.56a30.17,30.17,0,0,0,1.07,15.73,14.47,14.47,0,0,0,1.61,3.19c2.41,3.59,6.14,4.23,9.66,1.68A17.66,17.66,0,0,0,358.7,222c1.05-2.48,1.78-5.09,2.64-7.64.13-.37.21-.75.34-1.26,2.05.29,3.93.53,5.81.83.37.06.69.4,1.06.49a9.55,9.55,0,0,0,2,.38c1.2.06,2.41,0,3.76,0-.06.81-.1,1.41-.14,2-.38,4.68-.22,9.32,1.53,13.74a14.72,14.72,0,0,0,2.53,4.15,5.12,5.12,0,0,0,6.85,1.16,18,18,0,0,0,4.58-4.12,24.55,24.55,0,0,0,3.59-6.51c4,2,3.17,4.48,6.11,1.78S408.1,222.18,405.79,220.39Zm-60,6a15.36,15.36,0,0,1-2.17-4.64c-1.6-6.38-.78-12.66,1.2-18.83a20.81,20.81,0,0,1,4.65-8.41,29.24,29.24,0,0,1,2.79-2.22c.56,1,.3,1.5-.37,2a12.41,12.41,0,0,0-2.75,2.66,29.62,29.62,0,0,0-4.21,24.72c.69,2.73,2.12,5.08,5.53,5.9C348.38,228.35,346.84,228,345.76,226.43Zm8.5-3.13c-2.71,2.85-5.45,2.42-7.07-1.15a7.57,7.57,0,0,1-.73-2.13,47.82,47.82,0,0,1-.56-6.85,26.69,26.69,0,0,1,3.94-13.74,29.86,29.86,0,0,1,2.56-3.08l.45-.09c-.23,2.12.88,2.31,2.49,1.82.05.95.07,1.68.13,2.4.13,1.65-.74,3.62,1.49,4.59.09,0,.13.23.14.36.1,1.39.2,2.78.29,4.16-1.19.15-1.88,0-2-1.25-.06-.45-.64-1.16-1-1.17a1.81,1.81,0,0,0-1.44.86,11.26,11.26,0,0,0-.88,3.67,3,3,0,0,0,1.09,2.28c.9.49,1.35-.62,1.82-1.31s2.32-.47,2.69.27c.24.49.54.94.88,1.53A19.05,19.05,0,0,1,354.26,223.3Zm12.59-12.21-4.76-.69c.08-.84.14-1.49.22-2.32,1.44.18,2.71.3,4,.53a1.07,1.07,0,0,1,.63.76A8.59,8.59,0,0,1,366.85,211.09Zm.43-4.37-4.77-.62.06-.5,4.78.62Zm6.62,5.47c-.06-.12-.12-.24-.17-.36.11-.34.22-.7.34-1.05l.41,1.23C374.29,212.07,374.07,212.12,373.9,212.19ZM379,231a21.79,21.79,0,0,1-2-6.52,34.11,34.11,0,0,1-.14-5.16l1,2.85a21.61,21.61,0,0,0,1.06,5.34c.86,2.53,2.12,4.77,5.38,5.47C382,233.83,380.12,233.25,379,231Zm8.14-1.69c-1.93,1.69-3.95,1.58-5.26-.4a12.13,12.13,0,0,1-1.3-2.63A2.49,2.49,0,0,0,383,226c1.79-1.28,4-7.12,4-7.12a10.28,10.28,0,0,0,3.86,5A14.29,14.29,0,0,1,387.17,229.28Z" transform="translate(-48.48 -43.5)"/><g class="cls-23"><path class="cls-24" d="M432.65,306.6c-17.79,15.71-38.12,26.9-60.31,34.73C335.11,354.46,297,359.79,258,355.86l-.28,0c39.14,12.47,80.22,16.53,123.13,12.45,6.67-.64,13.31-1.6,20-2.71a240.27,240.27,0,0,0,98.1-46.31,487.68,487.68,0,0,0-64.14-12.35C434.55,306.9,432.67,306.58,432.65,306.6Z" transform="translate(-48.48 -43.5)"/></g><path class="cls-25" d="M148.27,335.9a11.78,11.78,0,0,0-3.07-1.84,8.2,8.2,0,0,0-3-.6,4.78,4.78,0,0,0-3,.86,2.69,2.69,0,0,0-1.15,2.26,2.25,2.25,0,0,0,.57,1.58,5.37,5.37,0,0,0,1.51,1.08,13.27,13.27,0,0,0,2.11.79c.79.22,1.56.46,2.33.72a14.47,14.47,0,0,1,6.74,4.1,10.09,10.09,0,0,1,2.14,6.7,12.88,12.88,0,0,1-.94,5,10.49,10.49,0,0,1-2.73,3.87,12.58,12.58,0,0,1-4.42,2.49,18.41,18.41,0,0,1-5.92.89,21.78,21.78,0,0,1-12.72-4.08l4-7.58A16.32,16.32,0,0,0,135,355a10,10,0,0,0,4.08.91,4.91,4.91,0,0,0,3.43-1.05,3.23,3.23,0,0,0,1.12-2.4,3.3,3.3,0,0,0-.28-1.42,3.26,3.26,0,0,0-1-1.1,7.73,7.73,0,0,0-1.76-.94q-1.08-.42-2.61-1c-1.22-.38-2.41-.8-3.57-1.27a11.27,11.27,0,0,1-3.12-1.84A8.52,8.52,0,0,1,129.1,342a10.22,10.22,0,0,1-.84-4.44,12.69,12.69,0,0,1,.89-4.87,10.85,10.85,0,0,1,2.49-3.74,11,11,0,0,1,3.94-2.42,14.74,14.74,0,0,1,5.2-.86,22.69,22.69,0,0,1,5.62.74,24.9,24.9,0,0,1,5.61,2.18Z" transform="translate(-48.48 -43.5)"/><path class="cls-25" d="M180.41,356.54H167l-2.16,6.28h-10l13.77-36.18h10.27l13.77,36.18h-10Zm-2.49-7.15-4.22-12.05-4.22,12.05Z" transform="translate(-48.48 -43.5)"/><path class="cls-25" d="M196.25,362.82V326.64h9.4L223,348.76V326.64h9.36v36.18H223L205.65,340.7v22.12Z" transform="translate(-48.48 -43.5)"/><path class="cls-25" d="M253.2,334.61v28.21h-9.4V334.61h-7.73v-8h24.86v8Z" transform="translate(-48.48 -43.5)"/><path class="cls-25" d="M285.11,356.54H271.67l-2.15,6.28h-10l13.77-36.18h10.27l13.77,36.18h-10Zm-2.5-7.15-4.22-12.05-4.22,12.05Z" transform="translate(-48.48 -43.5)"/><path class="cls-25" d="M334.37,338.73a10,10,0,0,0-8.06-4,9.88,9.88,0,0,0-3.91.77,9.41,9.41,0,0,0-5.13,5.23,10.26,10.26,0,0,0-.75,3.93,10.42,10.42,0,0,0,.75,4,9.57,9.57,0,0,0,5.16,5.27,9.4,9.4,0,0,0,3.83.77,10.89,10.89,0,0,0,8.11-3.84V362l-1,.34a28,28,0,0,1-4,1.13,19.46,19.46,0,0,1-3.69.36,18.45,18.45,0,0,1-7.17-1.42,18.66,18.66,0,0,1-6-4,19.93,19.93,0,0,1-4.2-6.09,19.57,19.57,0,0,1,0-15.36,19,19,0,0,1,4.17-6,19.17,19.17,0,0,1,13.32-5.35,20,20,0,0,1,4.24.45,26.21,26.21,0,0,1,4.39,1.42Z" transform="translate(-48.48 -43.5)"/><path class="cls-25" d="M369.93,362.82H358.22l-9-13.91v13.91h-9.41V326.64h14.64a14.36,14.36,0,0,1,5.27.89,10.13,10.13,0,0,1,3.72,2.42,10.31,10.31,0,0,1,2.21,3.55,12.33,12.33,0,0,1,.74,4.32,10.62,10.62,0,0,1-2,6.7,10,10,0,0,1-5.87,3.47Zm-20.68-20H351a6.83,6.83,0,0,0,4.27-1.15,4.42,4.42,0,0,0,0-6.62,6.83,6.83,0,0,0-4.27-1.15h-1.77Z" transform="translate(-48.48 -43.5)"/><path class="cls-25" d="M382.45,326.64v19.68c0,1.05,0,2.13.12,3.23a8.81,8.81,0,0,0,.72,3,5,5,0,0,0,1.9,2.19,6.65,6.65,0,0,0,3.64.84,6.53,6.53,0,0,0,3.62-.84,5.22,5.22,0,0,0,1.9-2.19,8.59,8.59,0,0,0,.74-3c.08-1.1.12-2.18.12-3.23V326.64h9.36v21q0,8.44-3.86,12.33t-11.88,3.89q-8,0-11.9-3.89t-3.88-12.33v-21Z" transform="translate(-48.48 -43.5)"/><path class="cls-25" d="M424.38,354.86h15.17v8H408.6l17.13-28.21H411.48v-8h29.94Z" transform="translate(-48.48 -43.5)"/><path class="cls-26" d="M147.72,398H137.19v5.7h9.94v7.5h-9.94v5.87h10.53v7.5H128.34V390.5h19.38Z" transform="translate(-48.48 -43.5)"/><path class="cls-26" d="M160.49,390.5h13.1a15.51,15.51,0,0,1,6.53,1.4,17.83,17.83,0,0,1,5.33,3.73,17.29,17.29,0,0,1,3.6,5.42,16.7,16.7,0,0,1,0,12.92,17.28,17.28,0,0,1-3.57,5.45,17.66,17.66,0,0,1-5.33,3.75,15.67,15.67,0,0,1-6.58,1.4h-13.1Zm8.86,26.57h2a11,11,0,0,0,4.11-.72,8.92,8.92,0,0,0,3-2,8.53,8.53,0,0,0,1.9-3,10.66,10.66,0,0,0,.65-3.81,10.55,10.55,0,0,0-.67-3.8,9.11,9.11,0,0,0-1.92-3,8.85,8.85,0,0,0-3.05-2,10.73,10.73,0,0,0-4.07-.73h-2Z" transform="translate(-48.48 -43.5)"/><path class="cls-26" d="M207.36,390.5V409c0,1,0,2,.11,3.05a8.34,8.34,0,0,0,.68,2.82,4.74,4.74,0,0,0,1.79,2.06,6.33,6.33,0,0,0,3.43.79,6.25,6.25,0,0,0,3.41-.79,4.91,4.91,0,0,0,1.78-2.06,7.91,7.91,0,0,0,.71-2.82c.07-1,.11-2.06.11-3.05V390.5h8.81v19.75q0,8-3.64,11.61t-11.18,3.66q-7.55,0-11.21-3.66t-3.66-11.61V390.5Z" transform="translate(-48.48 -43.5)"/><path class="cls-26" d="M263.36,401.89a9.43,9.43,0,0,0-7.59-3.75,9.33,9.33,0,0,0-3.68.72,8.86,8.86,0,0,0-2.91,2,8.7,8.7,0,0,0-1.92,3,9.63,9.63,0,0,0-.7,3.7,9.74,9.74,0,0,0,.7,3.75,8.88,8.88,0,0,0,1.94,3,9,9,0,0,0,6.53,2.71,10.22,10.22,0,0,0,7.63-3.61V423.8l-.9.32a26.83,26.83,0,0,1-3.79,1.06,18.15,18.15,0,0,1-3.48.34,17.75,17.75,0,0,1-12.45-5.08,18.76,18.76,0,0,1-4-5.74,18.34,18.34,0,0,1,0-14.46,17.72,17.72,0,0,1,9.65-9.35,17.79,17.79,0,0,1,6.82-1.34,19.07,19.07,0,0,1,4,.43,23.79,23.79,0,0,1,4.13,1.34Z" transform="translate(-48.48 -43.5)"/><path class="cls-26" d="M294.66,418.65H282l-2,5.92h-9.45l13-34.07h9.67l13,34.07h-9.45Zm-2.35-6.73-4-11.34-4,11.34Z" transform="translate(-48.48 -43.5)"/><path class="cls-26" d="M324,398v26.57H315.1V398h-7.28v-7.5h23.41V398Z" transform="translate(-48.48 -43.5)"/><path class="cls-26" d="M349.52,390.5v34.07h-8.85V390.5Z" transform="translate(-48.48 -43.5)"/><path class="cls-26" d="M358.13,407.54a17.93,17.93,0,0,1,1.4-7.08,17.53,17.53,0,0,1,9.83-9.53,21.62,21.62,0,0,1,15.2,0,17.92,17.92,0,0,1,6,3.82,17.65,17.65,0,0,1,3.91,5.71,18.58,18.58,0,0,1,0,14.15,17.55,17.55,0,0,1-3.91,5.71,17.92,17.92,0,0,1-6,3.82,21.62,21.62,0,0,1-15.2,0,17.53,17.53,0,0,1-9.83-9.53A17.88,17.88,0,0,1,358.13,407.54Zm9.26,0a9.15,9.15,0,0,0,.77,3.75,9.47,9.47,0,0,0,2.08,3,9.28,9.28,0,0,0,3.05,2,10,10,0,0,0,7.36,0,9.49,9.49,0,0,0,5.18-4.94,9.63,9.63,0,0,0,0-7.5,9.48,9.48,0,0,0-2.11-3,9.94,9.94,0,0,0-10.43-2,9.33,9.33,0,0,0-5.13,5A9.08,9.08,0,0,0,367.39,407.54Z" transform="translate(-48.48 -43.5)"/><path class="cls-26" d="M404.46,424.57V390.5h8.86l16.35,20.83V390.5h8.81v34.07h-8.81l-16.35-20.83v20.83Z" transform="translate(-48.48 -43.5)"/><path class="cls-25" d="M137.4,373.47a5,5,0,0,0-1.49-1,4.32,4.32,0,0,0-1.64-.32,3.75,3.75,0,0,0-2.86,1.13,4.94,4.94,0,0,0-.08,6,3.46,3.46,0,0,0,2.7,1.1,4.71,4.71,0,0,0,1.81-.35,4.9,4.9,0,0,0,1.54-1v2.6a6.23,6.23,0,0,1-1.61.71,6.34,6.34,0,0,1-1.76.23,5.86,5.86,0,0,1-4.4-1.76,6.64,6.64,0,0,1,0-8.92A6,6,0,0,1,134,370.1a7.2,7.2,0,0,1,3.44.83Z" transform="translate(-48.48 -43.5)"/><path class="cls-25" d="M161.66,376.33a6.4,6.4,0,0,1-.45,2.4,5.6,5.6,0,0,1-1.29,2,6.23,6.23,0,0,1-2,1.36,5.81,5.81,0,0,1-4.28.1,6.24,6.24,0,0,1-1.81-1.06,5.9,5.9,0,0,1-1.61-2.13,6.26,6.26,0,0,1-.57-2.66,6.4,6.4,0,0,1,.45-2.4,5.91,5.91,0,0,1,1.3-2,6,6,0,0,1,4.25-1.82,5.69,5.69,0,0,1,2.28.48,5.91,5.91,0,0,1,1.95,1.34,6,6,0,0,1,1.3,2A6.58,6.58,0,0,1,161.66,376.33Zm-6,4a3.21,3.21,0,0,0,2.51-1.13,4.1,4.1,0,0,0,1-2.83,4.16,4.16,0,0,0-1-2.83,3.33,3.33,0,0,0-5,0,4.54,4.54,0,0,0,0,5.67A3.23,3.23,0,0,0,155.69,380.29Z" transform="translate(-48.48 -43.5)"/><path class="cls-25" d="M183.88,370.39v7.37a4.85,4.85,0,0,1-1.2,3.59,4.92,4.92,0,0,1-3.62,1.19,5,5,0,0,1-3.66-1.19,4.81,4.81,0,0,1-1.21-3.59v-7.37h2.38v7a3.36,3.36,0,0,0,.62,2.2,2.22,2.22,0,0,0,1.83.74,2.28,2.28,0,0,0,1.85-.74,3.34,3.34,0,0,0,.63-2.2v-7Z" transform="translate(-48.48 -43.5)"/><path class="cls-25" d="M196.92,382.23V370.39h2.49l5,6.89a5.49,5.49,0,0,1,.47.82c.17.35.35.77.53,1.25-.05-.35-.1-.7-.12-1s0-.78,0-1.3v-6.62h2.29v11.84h-2.35l-5.1-7a6.06,6.06,0,0,1-.47-.82c-.17-.36-.35-.78-.53-1.27,0,.34.09.68.12,1s0,.79,0,1.32v6.76Z" transform="translate(-48.48 -43.5)"/><path class="cls-25" d="M224.74,372.54v9.69h-2.4v-9.69h-2.75v-2.15h7.89v2.15Z" transform="translate(-48.48 -43.5)"/><path class="cls-25" d="M241.91,382.23v-5.4l-3.8-6.44h2.82l1.66,3.24c.08.16.16.37.25.61s.18.54.27.86a7.74,7.74,0,0,1,.24-.77c.09-.25.19-.48.3-.72l1.65-3.22h2.81l-3.8,6.44v5.4Z" transform="translate(-48.48 -43.5)"/><path class="cls-25" d="M286.52,376.33a6.4,6.4,0,0,1-.45,2.4,5.89,5.89,0,0,1-1.29,2,6.27,6.27,0,0,1-2,1.36,5.71,5.71,0,0,1-2.26.46,5.86,5.86,0,0,1-2-.36,6.32,6.32,0,0,1-1.8-1.06,6,6,0,0,1-1.62-2.13,6.41,6.41,0,0,1-.56-2.66,6.6,6.6,0,0,1,.44-2.4,6.07,6.07,0,0,1,1.3-2,6,6,0,0,1,2-1.34,5.75,5.75,0,0,1,2.3-.48,5.61,5.61,0,0,1,2.27.48,6,6,0,0,1,2,1.34,5.83,5.83,0,0,1,1.29,2A6.39,6.39,0,0,1,286.52,376.33Zm-6,4a3.21,3.21,0,0,0,2.51-1.13,4.52,4.52,0,0,0,0-5.66,3.33,3.33,0,0,0-5,0,4.52,4.52,0,0,0,0,5.67A3.27,3.27,0,0,0,280.55,380.29Z" transform="translate(-48.48 -43.5)"/><path class="cls-25" d="M299.1,382.23V370.39h6.6v2.13h-4.21V375h4.21v2.15h-4.21v5.12Z" transform="translate(-48.48 -43.5)"/><path class="cls-25" d="M318.11,382.23V370.39h6.6v2.13H320.5V375h4.21v2.15H320.5v5.12Z" transform="translate(-48.48 -43.5)"/><path class="cls-25" d="M337.16,382.23V370.39h2.4v11.84Z" transform="translate(-48.48 -43.5)"/><path class="cls-25" d="M361.7,373.47a4.86,4.86,0,0,0-1.49-1,4.28,4.28,0,0,0-1.64-.32,3.75,3.75,0,0,0-2.86,1.13,4.92,4.92,0,0,0-.07,6,3.42,3.42,0,0,0,2.69,1.1,4.71,4.71,0,0,0,1.81-.35,5.05,5.05,0,0,0,1.55-1l0,2.6a6.32,6.32,0,0,1-1.6.71,6.41,6.41,0,0,1-1.77.23,5.86,5.86,0,0,1-4.4-1.76,6.64,6.64,0,0,1,0-8.92,6,6,0,0,1,4.45-1.76,7.2,7.2,0,0,1,3.43.83Z" transform="translate(-48.48 -43.5)"/><path class="cls-25" d="M374.48,382.23V370.39h6.61v2.13h-4.21V375h4.21v2.15h-4.21v3h4.21v2.15Z" transform="translate(-48.48 -43.5)"/><path class="cls-25" d="M420.84,376.33a6.6,6.6,0,0,1-.44,2.4,5.77,5.77,0,0,1-1.3,2,6.23,6.23,0,0,1-2,1.36,5.76,5.76,0,0,1-2.27.46,5.84,5.84,0,0,1-2-.36,6.06,6.06,0,0,1-1.8-1.06,5.82,5.82,0,0,1-1.62-2.13,6.26,6.26,0,0,1-.57-2.66,6.4,6.4,0,0,1,.45-2.4,5.91,5.91,0,0,1,1.3-2,6,6,0,0,1,4.25-1.82,5.69,5.69,0,0,1,2.28.48,5.81,5.81,0,0,1,2,1.34,6,6,0,0,1,1.3,2A6.38,6.38,0,0,1,420.84,376.33Zm-6,4a3.23,3.23,0,0,0,2.52-1.13,4.5,4.5,0,0,0,0-5.66,3.16,3.16,0,0,0-2.5-1.15,3.2,3.2,0,0,0-2.53,1.15,4.54,4.54,0,0,0,0,5.67A3.25,3.25,0,0,0,414.87,380.29Z" transform="translate(-48.48 -43.5)"/><path class="cls-25" d="M433.42,382.23V370.39H440v2.13h-4.2V375H440v2.15h-4.2v5.12Z" transform="translate(-48.48 -43.5)"/></g></g></svg>